<svg xmlns="http://www.w3.org/2000/svg" xmlns:xlink="http://www.w3.org/1999/xlink" width="176" zoomAndPan="magnify" viewBox="0 0 132 112.499997" height="150" preserveAspectRatio="xMidYMid meet" version="1.0"><defs><g/><clipPath id="a153fa9d3e"><path d="M 35.351562 13.433594 L 96.578125 13.433594 L 96.578125 68.6875 L 35.351562 68.6875 Z M 35.351562 13.433594 " clip-rule="nonzero"/></clipPath></defs><g clip-path="url(#a153fa9d3e)"><path fill="#1300f4" d="M 90.183594 19.894531 C 88.613281 19.894531 87.144531 20.503906 86.039062 21.605469 L 84.328125 23.316406 C 79.027344 17.011719 71.351562 13.410156 63.082031 13.410156 C 47.789062 13.410156 35.351562 25.855469 35.351562 41.15625 C 35.351562 56.457031 47.789062 68.90625 63.082031 68.90625 C 78.375 68.90625 90.832031 56.457031 90.832031 41.15625 C 90.832031 38.828125 90.527344 36.519531 89.953125 34.277344 L 94.328125 29.894531 C 96.613281 27.609375 96.613281 23.890625 94.328125 21.605469 C 93.222656 20.503906 91.75 19.894531 90.183594 19.894531 Z M 88.277344 35.960938 C 88.628906 37.664062 88.804688 39.40625 88.804688 41.15625 C 88.804688 55.339844 77.265625 66.882812 63.082031 66.882812 C 48.898438 66.882812 37.371094 55.339844 37.371094 41.15625 C 37.371094 26.972656 48.90625 15.433594 63.082031 15.433594 C 70.808594 15.433594 77.980469 18.816406 82.898438 24.746094 L 67.21875 40.410156 L 61.269531 34.460938 C 58.988281 32.179688 55.273438 32.179688 52.996094 34.460938 C 51.867188 35.585938 51.253906 37.070312 51.257812 38.636719 C 51.265625 40.191406 51.882812 41.65625 52.992188 42.75 L 63.085938 52.855469 C 64.214844 53.964844 65.679688 54.574219 67.21875 54.574219 C 68.757812 54.574219 70.234375 53.96875 71.386719 52.851562 Z M 92.898438 28.464844 L 69.96875 51.410156 C 69.21875 52.136719 68.21875 52.554688 67.21875 52.554688 C 66.214844 52.554688 65.253906 52.148438 64.515625 51.421875 L 54.417969 41.3125 C 53.691406 40.59375 53.285156 39.640625 53.28125 38.628906 C 53.277344 37.605469 53.683594 36.628906 54.425781 35.890625 C 54.984375 35.332031 55.675781 34.980469 56.402344 34.839844 C 57.097656 34.707031 57.820312 34.773438 58.488281 35.027344 C 58.515625 35.035156 58.542969 35.039062 58.570312 35.050781 C 58.761719 35.128906 58.941406 35.230469 59.121094 35.339844 C 59.15625 35.359375 59.199219 35.375 59.238281 35.398438 C 59.449219 35.539062 59.652344 35.703125 59.835938 35.890625 L 66.503906 42.554688 C 66.882812 42.933594 67.554688 42.933594 67.933594 42.554688 L 84.96875 25.535156 C 84.96875 25.535156 84.96875 25.53125 84.972656 25.53125 L 87.46875 23.035156 C 88.914062 21.589844 91.449219 21.589844 92.898438 23.035156 C 94.394531 24.53125 94.394531 26.964844 92.898438 28.464844 Z M 92.898438 28.464844 " fill-opacity="1" fill-rule="nonzero"/></g><g fill="#000000" fill-opacity="1"><g transform="translate(24.786686, 91.452687)"><g><path d="M 4.59375 -11.703125 L 0.078125 -11.703125 L 0.078125 -12.890625 L 10.484375 -12.890625 L 10.484375 -11.703125 L 5.96875 -11.703125 L 5.96875 0 L 4.59375 0 Z M 4.59375 -11.703125 "/></g></g></g><g fill="#000000" fill-opacity="1"><g transform="translate(35.354251, 91.452687)"><g><path d="M 5.203125 -9.75 C 6.472656 -9.75 7.441406 -9.429688 8.109375 -8.796875 C 8.785156 -8.171875 9.125 -7.238281 9.125 -6 L 9.125 0 L 7.875 0 L 7.875 -1.515625 C 7.582031 -1.003906 7.148438 -0.609375 6.578125 -0.328125 C 6.003906 -0.046875 5.328125 0.09375 4.546875 0.09375 C 3.460938 0.09375 2.601562 -0.160156 1.96875 -0.671875 C 1.332031 -1.191406 1.015625 -1.875 1.015625 -2.71875 C 1.015625 -3.539062 1.3125 -4.203125 1.90625 -4.703125 C 2.5 -5.210938 3.445312 -5.46875 4.75 -5.46875 L 7.828125 -5.46875 L 7.828125 -6.0625 C 7.828125 -6.894531 7.59375 -7.523438 7.125 -7.953125 C 6.65625 -8.390625 5.972656 -8.609375 5.078125 -8.609375 C 4.460938 -8.609375 3.875 -8.503906 3.3125 -8.296875 C 2.75 -8.097656 2.265625 -7.820312 1.859375 -7.46875 L 1.265625 -8.453125 C 1.753906 -8.867188 2.34375 -9.1875 3.03125 -9.40625 C 3.71875 -9.632812 4.441406 -9.75 5.203125 -9.75 Z M 4.75 -0.9375 C 5.488281 -0.9375 6.117188 -1.101562 6.640625 -1.4375 C 7.171875 -1.78125 7.566406 -2.269531 7.828125 -2.90625 L 7.828125 -4.484375 L 4.78125 -4.484375 C 3.125 -4.484375 2.296875 -3.910156 2.296875 -2.765625 C 2.296875 -2.203125 2.507812 -1.753906 2.9375 -1.421875 C 3.375 -1.097656 3.976562 -0.9375 4.75 -0.9375 Z M 4.75 -0.9375 "/></g></g></g><g fill="#000000" fill-opacity="1"><g transform="translate(46.216382, 91.452687)"><g><path d="M 4.421875 0.09375 C 3.628906 0.09375 2.875 -0.0195312 2.15625 -0.25 C 1.445312 -0.476562 0.890625 -0.765625 0.484375 -1.109375 L 1.0625 -2.140625 C 1.46875 -1.816406 1.976562 -1.550781 2.59375 -1.34375 C 3.207031 -1.144531 3.847656 -1.046875 4.515625 -1.046875 C 5.390625 -1.046875 6.039062 -1.179688 6.46875 -1.453125 C 6.894531 -1.734375 7.109375 -2.125 7.109375 -2.625 C 7.109375 -2.988281 6.988281 -3.269531 6.75 -3.46875 C 6.519531 -3.664062 6.226562 -3.816406 5.875 -3.921875 C 5.519531 -4.035156 5.046875 -4.140625 4.453125 -4.234375 C 3.671875 -4.378906 3.039062 -4.53125 2.5625 -4.6875 C 2.082031 -4.84375 1.671875 -5.101562 1.328125 -5.46875 C 0.992188 -5.832031 0.828125 -6.34375 0.828125 -7 C 0.828125 -7.800781 1.164062 -8.457031 1.84375 -8.96875 C 2.519531 -9.488281 3.457031 -9.75 4.65625 -9.75 C 5.28125 -9.75 5.90625 -9.664062 6.53125 -9.5 C 7.15625 -9.34375 7.671875 -9.128906 8.078125 -8.859375 L 7.515625 -7.796875 C 6.710938 -8.347656 5.757812 -8.625 4.65625 -8.625 C 3.820312 -8.625 3.191406 -8.476562 2.765625 -8.1875 C 2.347656 -7.894531 2.140625 -7.507812 2.140625 -7.03125 C 2.140625 -6.664062 2.257812 -6.367188 2.5 -6.140625 C 2.738281 -5.921875 3.035156 -5.757812 3.390625 -5.65625 C 3.742188 -5.550781 4.234375 -5.445312 4.859375 -5.34375 C 5.628906 -5.1875 6.25 -5.035156 6.71875 -4.890625 C 7.1875 -4.742188 7.582031 -4.492188 7.90625 -4.140625 C 8.238281 -3.785156 8.40625 -3.296875 8.40625 -2.671875 C 8.40625 -1.828125 8.050781 -1.15625 7.34375 -0.65625 C 6.644531 -0.15625 5.671875 0.09375 4.421875 0.09375 Z M 4.421875 0.09375 "/></g></g></g><g fill="#000000" fill-opacity="1"><g transform="translate(55.219067, 91.452687)"><g><path d="M 5.40625 -4.859375 L 3.125 -2.765625 L 3.125 0 L 1.828125 0 L 1.828125 -13.65625 L 3.125 -13.65625 L 3.125 -4.40625 L 8.90625 -9.6875 L 10.53125 -9.6875 L 6.390625 -5.71875 L 10.921875 0 L 9.3125 0 Z M 5.40625 -4.859375 "/></g></g></g><g fill="#000000" fill-opacity="1"><g transform="translate(66.283717, 91.452687)"><g><path d="M 15.484375 -12.890625 L 15.484375 0 L 14.171875 0 L 14.171875 -10.3125 L 9.109375 -1.640625 L 8.46875 -1.640625 L 3.40625 -10.25 L 3.40625 0 L 2.09375 0 L 2.09375 -12.890625 L 3.21875 -12.890625 L 8.8125 -3.328125 L 14.359375 -12.890625 Z M 15.484375 -12.890625 "/></g></g></g><g fill="#000000" fill-opacity="1"><g transform="translate(83.86565, 91.452687)"><g><path d="M 5.203125 -9.75 C 6.472656 -9.75 7.441406 -9.429688 8.109375 -8.796875 C 8.785156 -8.171875 9.125 -7.238281 9.125 -6 L 9.125 0 L 7.875 0 L 7.875 -1.515625 C 7.582031 -1.003906 7.148438 -0.609375 6.578125 -0.328125 C 6.003906 -0.046875 5.328125 0.09375 4.546875 0.09375 C 3.460938 0.09375 2.601562 -0.160156 1.96875 -0.671875 C 1.332031 -1.191406 1.015625 -1.875 1.015625 -2.71875 C 1.015625 -3.539062 1.3125 -4.203125 1.90625 -4.703125 C 2.5 -5.210938 3.445312 -5.46875 4.75 -5.46875 L 7.828125 -5.46875 L 7.828125 -6.0625 C 7.828125 -6.894531 7.59375 -7.523438 7.125 -7.953125 C 6.65625 -8.390625 5.972656 -8.609375 5.078125 -8.609375 C 4.460938 -8.609375 3.875 -8.503906 3.3125 -8.296875 C 2.75 -8.097656 2.265625 -7.820312 1.859375 -7.46875 L 1.265625 -8.453125 C 1.753906 -8.867188 2.34375 -9.1875 3.03125 -9.40625 C 3.71875 -9.632812 4.441406 -9.75 5.203125 -9.75 Z M 4.75 -0.9375 C 5.488281 -0.9375 6.117188 -1.101562 6.640625 -1.4375 C 7.171875 -1.78125 7.566406 -2.269531 7.828125 -2.90625 L 7.828125 -4.484375 L 4.78125 -4.484375 C 3.125 -4.484375 2.296875 -3.910156 2.296875 -2.765625 C 2.296875 -2.203125 2.507812 -1.753906 2.9375 -1.421875 C 3.375 -1.097656 3.976562 -0.9375 4.75 -0.9375 Z M 4.75 -0.9375 "/></g></g></g><g fill="#000000" fill-opacity="1"><g transform="translate(94.727781, 91.452687)"><g><path d="M 6.75 -9.75 C 7.96875 -9.75 8.9375 -9.394531 9.65625 -8.6875 C 10.375 -7.988281 10.734375 -6.960938 10.734375 -5.609375 L 10.734375 0 L 9.421875 0 L 9.421875 -5.484375 C 9.421875 -6.492188 9.171875 -7.257812 8.671875 -7.78125 C 8.171875 -8.3125 7.453125 -8.578125 6.515625 -8.578125 C 5.472656 -8.578125 4.644531 -8.265625 4.03125 -7.640625 C 3.425781 -7.023438 3.125 -6.171875 3.125 -5.078125 L 3.125 0 L 1.828125 0 L 1.828125 -9.6875 L 3.078125 -9.6875 L 3.078125 -7.890625 C 3.429688 -8.484375 3.921875 -8.941406 4.546875 -9.265625 C 5.179688 -9.585938 5.914062 -9.75 6.75 -9.75 Z M 6.75 -9.75 "/></g></g></g></svg>